<svg width="20" height="20" fill="none" xmlns="http://www.w3.org/2000/svg"><path d="M14.375 7.933c0-2.595-1.96-4.7-4.375-4.7s-4.375 2.105-4.375 4.7c0 .405.137 1.031.465 1.867.32.81.772 1.703 1.291 2.607.866 1.508 1.869 2.964 2.62 4.002.753-1.038 1.755-2.494 2.618-4.002.52-.904.973-1.798 1.292-2.607.328-.836.464-1.462.464-1.867zm1.459 0c0 2.852-3.555 7.93-5.114 10.026a.88.88 0 01-1.44 0c-1.558-2.095-5.113-7.174-5.113-10.026 0-3.46 2.613-6.266 5.833-6.266s5.834 2.806 5.834 6.266zm-4.861 0c0-.277-.103-.543-.285-.739A.94.94 0 0010 6.89a.94.94 0 00-.687.305 1.085 1.085 0 00-.285.739c0 .277.103.543.285.738a.94.94 0 00.687.306.94.94 0 00.688-.306c.182-.195.284-.461.284-.738zm-3.403 0c0-.692.256-1.357.712-1.846A2.349 2.349 0 0110 5.322c.645 0 1.263.275 1.719.765.456.49.712 1.154.712 1.846a2.71 2.71 0 01-.712 1.846 2.349 2.349 0 01-1.719.765 2.349 2.349 0 01-1.718-.765 2.713 2.713 0 01-.712-1.846z" fill="#3995EA"/></svg>