<svg width="32" height="32" fill="none" xmlns="http://www.w3.org/2000/svg"><path d="M13.713 2.808c.601.318.83 1.073.52 1.688l-4.156 8.171h11.845l-4.155-8.171a1.268 1.268 0 01.52-1.688 1.216 1.216 0 011.65.532l4.74 9.327h4.767c.677 0 1.222.558 1.222 1.25 0 .693-.545 1.25-1.222 1.25h-1.018l-2.847 11.64c-.362 1.485-1.665 2.526-3.163 2.526H9.583c-1.497 0-2.8-1.041-3.162-2.525l-2.847-11.64H2.555a1.233 1.233 0 01-1.222-1.25c0-.693.545-1.25 1.222-1.25h4.767l4.741-9.329a1.209 1.209 0 011.65-.53zm-7.618 12.36l2.699 11.035a.82.82 0 00.789.63h12.833a.82.82 0 00.79-.63l2.699-11.036H6.095zm6.645 3.75v4.166c0 .692-.545 1.25-1.222 1.25a1.233 1.233 0 01-1.222-1.25v-4.167c0-.693.545-1.25 1.222-1.25.677 0 1.222.557 1.222 1.25zm3.26-1.25c.677 0 1.222.556 1.222 1.25v4.166c0 .692-.545 1.25-1.222 1.25a1.233 1.233 0 01-1.223-1.25v-4.167c0-.693.545-1.25 1.223-1.25zm5.703 1.25v4.166c0 .692-.544 1.25-1.222 1.25a1.233 1.233 0 01-1.222-1.25v-4.167c0-.693.545-1.25 1.222-1.25.677 0 1.222.557 1.222 1.25z" fill="url(#paint0_linear_1_686)"/><defs><linearGradient id="paint0_linear_1_686" x1="16" y1="2.667" x2="16" y2="29.333" gradientUnits="userSpaceOnUse"><stop stop-color="#3490E4"/><stop offset="1" stop-color="#1F69D7"/></linearGradient></defs></svg>