<svg width="22" height="22" fill="none" xmlns="http://www.w3.org/2000/svg"><path d="M9.475 2.205c.4.212.553.716.346 1.125l-2.77 5.448h7.897l-2.77-5.448a.846.846 0 01.346-1.125.81.81 0 011.1.355l3.16 6.218h3.178c.452 0 .815.372.815.833a.822.822 0 01-.815.834h-.679l-1.897 7.76a2.182 2.182 0 01-2.109 1.684H6.722a2.182 2.182 0 01-2.109-1.684l-1.897-7.76h-.68a.822.822 0 01-.814-.834c0-.461.363-.833.814-.833h3.178L8.375 2.56a.806.806 0 011.1-.355zm-5.079 8.24l1.8 7.357c.06.247.278.42.526.42h8.555a.547.547 0 00.527-.42l1.799-7.357H4.396zm4.43 2.5v2.777a.822.822 0 01-.814.834.822.822 0 01-.815-.834v-2.777c0-.462.363-.834.815-.834.451 0 .815.372.815.834zM11 12.11c.452 0 .815.372.815.834v2.777a.822.822 0 01-.815.834.822.822 0 01-.814-.834v-2.777c0-.462.363-.834.814-.834zm3.803.834v2.777a.822.822 0 01-.815.834.822.822 0 01-.815-.834v-2.777c0-.462.364-.834.815-.834.452 0 .815.372.815.834z" fill="#474119"/></svg>