<svg width="22" height="22" fill="none" xmlns="http://www.w3.org/2000/svg"><path d="M9.846 19.43l-.095-.09-6.692-6.284a5.846 5.846 0 01-1.837-4.263v-.128c0-2.719 1.91-5.052 4.552-5.562a5.535 5.535 0 014.27.931c.344.247.665.533.955.862.16-.186.333-.356.516-.514a5.553 5.553 0 014.71-1.282c2.642.51 4.552 2.846 4.552 5.565v.128a5.846 5.846 0 01-1.837 4.264l-6.692 6.283-.095.09a1.69 1.69 0 01-1.154.459 1.67 1.67 0 01-1.153-.46zm.508-12.484a.2.2 0 01-.038-.042l-.68-.773-.004-.003a3.735 3.735 0 00-3.514-1.205c-1.78.343-3.063 1.911-3.063 3.742v.128c0 1.1.455 2.155 1.253 2.904l6.691 6.284 6.692-6.284a3.987 3.987 0 001.253-2.904v-.128c0-1.827-1.283-3.399-3.06-3.742a3.741 3.741 0 00-3.513 1.205l-.004.003-.004.004-.68.773c-.011.015-.027.027-.038.042a.908.908 0 01-1.291 0v-.004z" fill="#474119"/></svg>