<svg width="32" height="32" fill="none" xmlns="http://www.w3.org/2000/svg"><path d="M14.27 28.644l-.144-.133L4.09 19.085a8.77 8.77 0 01-2.756-6.396v-.191c0-4.079 2.865-7.578 6.83-8.343a8.302 8.302 0 016.404 1.396c.516.371.997.8 1.433 1.292.24-.278.498-.533.773-.77a8.329 8.329 0 017.064-1.923c3.965.764 6.83 4.27 6.83 8.348v.19a8.77 8.77 0 01-2.756 6.397L17.873 28.51l-.143.133c-.47.44-1.089.69-1.73.69-.642 0-1.26-.244-1.73-.69zm.76-18.724a.3.3 0 01-.057-.064l-1.02-1.159-.005-.006a5.603 5.603 0 00-5.271-1.807c-2.67.515-4.595 2.868-4.595 5.614v.19a5.98 5.98 0 001.88 4.357L16 26.471l10.037-9.425a5.98 5.98 0 001.88-4.357v-.191c0-2.74-1.926-5.099-4.59-5.614a5.612 5.612 0 00-5.27 1.807l-.006.006-.006.006-1.02 1.159c-.017.023-.04.04-.057.063a1.363 1.363 0 01-1.937 0V9.92z" fill="url(#paint0_linear_1_690)"/><defs><linearGradient id="paint0_linear_1_690" x1="16" y1="4" x2="16" y2="29.333" gradientUnits="userSpaceOnUse"><stop stop-color="#3490E4"/><stop offset="1" stop-color="#1F69D7"/></linearGradient></defs></svg>