<svg width="134" height="60" fill="none" xmlns="http://www.w3.org/2000/svg"><g clip-path="url(#clip0_1_651)"><path d="M74.248 16.863c-.831-.7-1.832-1.05-3.002-1.051h-8.493c-1.17 0-2.19.35-3.058 1.051-.793.702-1.19 1.532-1.19 2.491v3.543h16.987v-3.543c0-.959-.414-1.79-1.244-2.49z" fill="#3089E2"/><path d="M46.163 0v37.066h-8.495v-7.083H20.683c-2.378 0-4.397-.684-6.057-2.048-1.623-1.401-2.435-3.08-2.434-5.036V8.727h8.491v10.627c0 .997.396 1.846 1.189 2.547.87.663 1.89.995 3.06.996h12.736V0H0v45.793h87.837V8.727h8.493v14.17h12.74c1.171 0 2.171-.332 3.002-.996.829-.701 1.244-1.55 1.245-2.547V8.727h8.494v14.17c0 1.992-.831 3.671-2.492 5.036a8.966 8.966 0 01-2.208 1.329l4.7 7.804h-8.494l-4.247-7.083H96.33v15.812H134V0H46.163zm37.824 37.066h-8.494v-7.083H58.505v7.083h-8.492V15.812c0-1.956.812-3.616 2.435-4.982 1.66-1.402 3.68-2.103 6.059-2.103h16.986c2.34 0 4.341.7 6.002 2.103 1.661 1.402 2.492 3.063 2.492 4.982v21.254z" fill="#3089E2"/><path d="M3.716 52.46v7.454h-1.2v-3.002a1.17 1.17 0 01-.484.314 1.628 1.628 0 01-.54.1c-.494 0-.866-.157-1.117-.473-.25-.316-.375-.73-.375-1.24V52.46h1.199v3.059c0 .248.069.433.206.553.134.12.31.184.49.181a.573.573 0 00.453-.196c.112-.132.169-.323.169-.572V52.46h1.199zm2.08 3.142h1.645v1.065H5.796v2.182h2.07v1.066H4.598V52.46h3.268v1.065h-2.07v2.077zm2.474 3.26a2.3 2.3 0 00.342-.02.42.42 0 00.225-.102.456.456 0 00.126-.234c.029-.135.046-.273.05-.41l.195-5.634h3.388v7.454h-1.222v-6.39H10.33l-.131 4.504c-.022.681-.169 1.168-.441 1.46-.273.29-.707.436-1.302.436H8.27v-1.064zm5.022 1.053c.056-.135.093-.276.108-.42a4.63 4.63 0 00.022-.484v-1.15c0-.392.057-.723.17-.997.112-.273.32-.47.625-.59-.522-.242-.784-.746-.784-1.513v-.586c0-.575.14-1.005.42-1.289.28-.284.732-.426 1.356-.426h1.808v7.455H15.82V56.88h-.414c-.276 0-.476.07-.6.213-.123.142-.185.387-.184.735v1.171c0 .15-.002.274-.005.373a2.23 2.23 0 01-.022.245 1.045 1.045 0 01-.039.16l-.045.138h-1.218zm1.95-6.39c-.21 0-.365.06-.463.18-.098.121-.147.317-.147.587v.735c0 .298.063.503.19.615.127.113.303.17.529.17h.468v-2.287h-.577zm2.658 6.389V52.46h3.355v1.065h-2.157v1.906h.698c.602 0 1.055.156 1.356.468.302.313.452.77.45 1.374v.8c0 .603-.15 1.06-.45 1.373-.3.312-.752.468-1.356.468H17.9zm1.896-1.065c.188 0 .337-.05.447-.148.108-.1.163-.284.163-.554v-.948c0-.27-.055-.454-.163-.554-.109-.099-.258-.149-.447-.149h-.698v2.353h.698zm3.845 1.066h-1.229V52.46h1.068v4.718l.435-1.64.98-3.08h1.32v7.455h-1.081v-5.248l-.49 1.831-1.003 3.419zm4.621-.001h-1.2V52.46h1.2v3.195h1.362V52.46h1.22v7.454h-1.222V56.72h-1.36v3.194zm6.927-2.779v.99c0 .604-.15 1.068-.45 1.39-.3.324-.745.485-1.335.485-.588 0-1.033-.162-1.335-.484-.301-.323-.451-.786-.45-1.39v-3.877c0-.603.15-1.066.45-1.39.3-.323.745-.485 1.335-.484.588 0 1.033.162 1.335.484.302.323.452.786.45 1.39v.724h-1.133v-.798c0-.27-.057-.46-.17-.572a.62.62 0 00-.451-.165.611.611 0 00-.45.165c-.111.11-.17.3-.17.572v4.028c0 .27.057.457.17.564a.63.63 0 00.45.16.638.638 0 00.452-.16c.113-.107.169-.294.169-.565v-1.064l1.133-.003zm2.299-.191l-.37.681v2.288h-1.2V52.46h1.199v3.248l1.57-3.248h1.197l-1.665 3.323 1.665 4.131h-1.23l-1.166-2.97zm6.819 2.97h-1.21l-.206-1.352h-1.47l-.208 1.352h-1.1l1.22-7.454h1.755l1.22 7.454zm-2.734-2.364h1.154l-.577-3.77-.577 3.77zm3.071 2.365c.056-.135.093-.276.108-.42a4.63 4.63 0 00.023-.484v-1.15c0-.392.056-.723.168-.997.113-.273.322-.47.627-.59-.523-.242-.784-.746-.785-1.513v-.586c0-.575.14-1.005.42-1.289.28-.284.731-.426 1.356-.426h1.809v7.455h-1.2V56.88h-.412c-.277 0-.476.07-.6.213-.123.142-.185.387-.185.735v1.171c0 .15 0 .274-.005.373-.002.082-.01.164-.022.245a1 1 0 01-.038.16c-.015.043-.03.087-.045.138h-1.22zm1.95-6.39c-.21 0-.365.06-.463.18-.099.121-.148.317-.147.587v.735c0 .298.063.503.19.615.127.113.303.17.529.17h.468v-2.287h-.577zm8.216 6.389H53.6l-.208-1.352h-1.47l-.207 1.352h-1.1l1.22-7.454h1.755l1.22 7.454zm-2.735-2.364h1.155l-.575-3.77-.58 3.77zm5.055-5.09c.603 0 1.052.156 1.346.469.294.313.441.77.441 1.373v.968c0 .604-.147 1.062-.441 1.374-.294.313-.743.469-1.346.469h-.566v2.8h-1.199V52.46h1.765zm-.566 1.065v2.524h.566c.19 0 .335-.05.436-.15.102-.099.153-.284.152-.553v-1.118c0-.27-.05-.455-.152-.554-.101-.099-.246-.149-.436-.149h-.566zm5.446 4.228l.819-5.293h1.665v7.454H63.36V54.57l-.828 5.345H61.4l-.894-5.27v5.27H59.46V52.46h1.665l.886 5.293zm7.235 2.161h-1.21l-.207-1.352h-1.47l-.207 1.352H65.05l1.22-7.454h1.755l1.22 7.454zM66.51 57.55h1.155l-.577-3.77-.578 3.77zm2.941-5.09h3.705v1.065h-1.254v6.39h-1.198v-6.39h-1.253V52.46zm6.885 5.56a5.08 5.08 0 01-.266.88 1.703 1.703 0 01-.425.615c-.196.17-.432.288-.687.346-.279.071-.626.093-1.04.064v-1.044c.305.022.545-.006.72-.085.174-.078.287-.252.337-.522l.01-.063-1.655-5.751h1.188l.653 2.545.371 1.747.283-1.736.545-2.556h1.253l-1.287 5.56zm3.552-5.56c.602 0 1.05.156 1.346.469.295.313.442.77.44 1.373v.968c0 .604-.146 1.062-.44 1.374-.294.313-.743.469-1.346.469h-.567v2.8h-1.198V52.46h1.765zm-.567 1.065v2.524h.567c.189 0 .334-.05.436-.15.101-.099.153-.283.153-.553v-1.118c0-.27-.052-.454-.153-.554-.102-.1-.247-.149-.436-.149h-.567zm4.108 6.389H82.23V52.46h1.198v3.195h1.361V52.46h1.22v7.454h-1.22V56.72H83.43v3.194zm7.331 0h-1.209l-.207-1.352h-1.47l-.207 1.352h-1.1l1.22-7.454h1.755l1.219 7.454zm-2.732-2.364h1.154l-.577-3.77-.577 3.77zm3.071 2.365c.056-.135.092-.276.108-.42.016-.161.024-.323.023-.484v-1.15c0-.392.056-.723.168-.997.113-.273.322-.47.626-.59-.523-.242-.784-.746-.784-1.513v-.586c0-.575.14-1.005.42-1.289.279-.284.731-.426 1.356-.426h1.808v7.455h-1.199V56.88h-.414c-.276 0-.476.07-.599.213-.123.142-.185.387-.185.735v1.171c0 .15 0 .274-.006.373-.002.082-.01.164-.021.245a.99.99 0 01-.039.16l-.045.138H91.1zm1.95-6.39c-.21 0-.365.06-.463.18-.098.122-.148.317-.148.587v.735c0 .298.064.503.191.615.127.113.304.17.529.17h.468v-2.287h-.577zm5.904 3.419l-.37.681v2.288h-1.198V52.46h1.198v3.248l1.569-3.248h1.197l-1.665 3.323 1.665 4.131h-1.231l-1.165-2.97zm2.846-2.694c0-.604.156-1.067.468-1.39.313-.324.763-.486 1.35-.485.588 0 1.039.162 1.351.484.312.323.468.786.468 1.39v3.877c0 .603-.156 1.067-.468 1.39-.312.323-.763.484-1.351.484s-1.038-.162-1.35-.484c-.311-.323-.468-.786-.468-1.39v-3.877zm1.198 3.95c0 .27.057.461.169.572a.62.62 0 00.452.165c.19 0 .34-.054.45-.165.111-.11.169-.3.169-.572v-4.026c0-.27-.056-.459-.169-.571a.607.607 0 00-.45-.165.624.624 0 00-.452.165c-.113.11-.169.3-.169.572V58.2zm5.751-.447l.817-5.293h1.665v7.454h-1.133V54.57l-.827 5.345h-1.133l-.892-5.27v5.27h-1.047V52.46h1.665l.885 5.293zm4.554 2.161h-1.197V52.46h3.781v7.454h-1.221v-6.389h-1.362l-.001 6.39zm7.332 0h-1.21l-.206-1.352h-1.472l-.206 1.352h-1.101l1.221-7.454h1.755l1.219 7.454zm-2.735-2.364h1.155l-.577-3.77-.578 3.77zm4.488 2.364h-1.199V52.46h1.199v3.195h1.362V52.46h1.22v7.454h-1.22V56.72h-1.362v3.194zm4.685.001h-1.231V52.46h1.067v4.718l.436-1.64.981-3.08h1.317v7.455h-1.08v-5.248l-.49 1.831-1 3.419zm3.202 0c.057-.135.093-.276.109-.42a4.61 4.61 0 00.022-.484v-1.15c0-.392.056-.723.169-.997.112-.273.321-.47.626-.59-.523-.242-.784-.746-.784-1.513v-.586c0-.575.14-1.005.419-1.289.28-.284.732-.426 1.357-.426H134v7.455h-1.198V56.88h-.414c-.277 0-.476.07-.599.213-.124.142-.186.387-.186.735v1.171c0 .15 0 .274-.005.373-.002.082-.01.164-.022.245a.981.981 0 01-.038.16l-.045.138h-1.219zm1.95-6.39c-.21 0-.364.06-.463.18-.098.121-.147.317-.147.587v.735c0 .298.064.503.191.615.126.113.303.17.528.17h.469v-2.287h-.578z" fill="#5A656D"/></g><defs><clipPath id="clip0_1_651"><path fill="#fff" d="M0 0h134v60H0z"/></clipPath></defs></svg>