<svg width="20" height="20" fill="none" xmlns="http://www.w3.org/2000/svg"><path d="M1.667 8.333a3.334 3.334 0 016.666 0V15h-6.11a.557.557 0 01-.556-.556v-6.11zm6.666 8.334h9.445A2.224 2.224 0 0020 14.444v-6.11c0-2.761-2.24-5-5-5H5c-2.76 0-5 2.239-5 5v6.11c0 1.226.997 2.223 2.222 2.223h6.111zM10 8.333A4.983 4.983 0 008.726 5H15a3.334 3.334 0 013.333 3.333v6.111c0 .306-.25.556-.555.556H10V8.333zm-6.389-.555a.831.831 0 00-.833.833.83.83 0 00.833.833H6.39a.831.831 0 00.833-.833.831.831 0 00-.833-.833H3.61zm8.889 0a.831.831 0 00-.833.833.83.83 0 00.833.833h1.944v.834c0 .461.372.833.834.833h.555a.831.831 0 00.834-.833V8.61a.831.831 0 00-.834-.833H12.5z" fill="#3995EA"/></svg>