<svg width="20" height="20" fill="none" xmlns="http://www.w3.org/2000/svg"><path d="M13.9 10.623a1.302 1.302 0 00-1.52.371l-1.08 1.322A9.98 9.98 0 017.682 8.7L9 7.622c.45-.367.602-.986.371-1.52L7.81 2.457a1.3 1.3 0 00-1.468-.761l-3.646.78A1.3 1.3 0 001.667 3.75c0 7.525 5.703 13.722 13.024 14.5.32.032.638.058.964.071h.003c.199.007.394.013.593.013a1.3 1.3 0 001.272-1.028l.782-3.645a1.3 1.3 0 00-.762-1.468l-3.646-1.562.003-.007zm2.14 6.145C9.016 16.654 3.342 10.98 3.232 3.96l3.229-.693 1.4 3.267-1.169.957a1.562 1.562 0 00-.361 1.992 11.522 11.522 0 004.186 4.185 1.563 1.563 0 001.992-.36l.957-1.17 3.269 1.4-.697 3.229z" fill="#3995EA"/></svg>