<svg width="36" height="36" fill="none" xmlns="http://www.w3.org/2000/svg"><path d="M25.02 19.122a2.343 2.343 0 00-2.736.667l-1.946 2.379a17.963 17.963 0 01-6.51-6.509l2.373-1.939a2.333 2.333 0 00.668-2.736l-2.812-6.561a2.34 2.34 0 00-2.643-1.37L4.852 4.457A2.34 2.34 0 003 6.748c0 13.545 10.266 24.7 23.444 26.1.574.058 1.148.105 1.734.129h.006c.358.011.71.023 1.067.023a2.34 2.34 0 002.29-1.851l1.407-6.562a2.339 2.339 0 00-1.371-2.642l-6.563-2.812.006-.011zm3.85 11.06C16.23 29.977 6.018 19.766 5.818 7.13l5.813-1.247 2.52 5.881-2.104 1.723a2.811 2.811 0 00-.65 3.585 20.74 20.74 0 007.535 7.534 2.813 2.813 0 003.586-.65l1.723-2.103 5.883 2.519-1.254 5.811z" fill="#3995EA"/></svg>